<svg width="25" height="25" viewBox="0 0 25 25" fill="none" xmlns="http://www.w3.org/2000/svg">
<path d="M17.75 0.5C18.7446 0.5 19.6984 0.895088 20.4016 1.59835C21.1049 2.30161 21.5 3.25544 21.5 4.25V10.4C21.0206 10.1547 20.5182 9.95725 20 9.8105V6.5H2V17.75C2 18.3467 2.23705 18.919 2.65901 19.341C3.08097 19.7629 3.65326 20 4.25 20H9.8105C9.959 20.5235 10.1555 21.0245 10.4 21.5H4.25C3.25544 21.5 2.30161 21.1049 1.59835 20.4016C0.895088 19.6984 0.5 18.7446 0.5 17.75V4.25C0.5 3.25544 0.895088 2.30161 1.59835 1.59835C2.30161 0.895088 3.25544 0.5 4.25 0.5H17.75ZM17.75 2H4.25C3.65326 2 3.08097 2.23705 2.65901 2.65901C2.23705 3.08097 2 3.65326 2 4.25V5H20V4.25C20 3.65326 19.7629 3.08097 19.341 2.65901C18.919 2.23705 18.3467 2 17.75 2ZM16.8125 14.75C16.8125 14.5014 16.9113 14.2629 17.0871 14.0871C17.2629 13.9113 17.5014 13.8125 17.75 13.8125C17.9986 13.8125 18.2371 13.9113 18.4129 14.0871C18.5887 14.2629 18.6875 14.5014 18.6875 14.75C18.6875 14.9986 18.5887 15.2371 18.4129 15.4129C18.2371 15.5887 17.9986 15.6875 17.75 15.6875C17.5014 15.6875 17.2629 15.5887 17.0871 15.4129C16.9113 15.2371 16.8125 14.9986 16.8125 14.75ZM18.5 20.75C18.5 20.9489 18.421 21.1397 18.2803 21.2803C18.1397 21.421 17.9489 21.5 17.75 21.5C17.5511 21.5 17.3603 21.421 17.2197 21.2803C17.079 21.1397 17 20.9489 17 20.75V17.75C17 17.5511 17.079 17.3603 17.2197 17.2197C17.3603 17.079 17.5511 17 17.75 17C17.9489 17 18.1397 17.079 18.2803 17.2197C18.421 17.3603 18.5 17.5511 18.5 17.75V20.75ZM11 17.75C11 15.9598 11.7112 14.2429 12.977 12.977C14.2429 11.7112 15.9598 11 17.75 11C19.5402 11 21.2571 11.7112 22.523 12.977C23.7888 14.2429 24.5 15.9598 24.5 17.75C24.5 19.5402 23.7888 21.2571 22.523 22.523C21.2571 23.7888 19.5402 24.5 17.75 24.5C15.9598 24.5 14.2429 23.7888 12.977 22.523C11.7112 21.2571 11 19.5402 11 17.75ZM12.5 17.75C12.5 18.4394 12.6358 19.1221 12.8996 19.7591C13.1635 20.396 13.5502 20.9748 14.0377 21.4623C14.5252 21.9498 15.104 22.3365 15.7409 22.6004C16.3779 22.8642 17.0606 23 17.75 23C18.4394 23 19.1221 22.8642 19.7591 22.6004C20.396 22.3365 20.9748 21.9498 21.4623 21.4623C21.9498 20.9748 22.3365 20.396 22.6004 19.7591C22.8642 19.1221 23 18.4394 23 17.75C23 16.3576 22.4469 15.0223 21.4623 14.0377C20.4777 13.0531 19.1424 12.5 17.75 12.5C16.3576 12.5 15.0223 13.0531 14.0377 14.0377C13.0531 15.0223 12.5 16.3576 12.5 17.75Z" fill="#D9D9D9"/>
</svg>
