<svg width="26" height="24" viewBox="0 0 26 24" fill="none" xmlns="http://www.w3.org/2000/svg">
<path d="M24.6442 10.6566L14.2504 1.77532C13.9108 1.48483 13.4786 1.3252 13.0317 1.3252C12.5847 1.3252 12.1525 1.48483 11.8129 1.77532L1.35665 10.6566C1.20279 10.7853 1.07596 10.9432 0.983487 11.1213C0.89101 11.2993 0.834721 11.4939 0.817868 11.6938C0.801016 11.8937 0.823935 12.095 0.885302 12.286C0.946668 12.4769 1.04527 12.6539 1.1754 12.8066C1.32054 12.9829 1.50419 13.1236 1.71222 13.2179C1.92025 13.3121 2.14712 13.3575 2.3754 13.3503H3.68165V21.6566C3.68165 21.7904 3.708 21.9228 3.7592 22.0464C3.8104 22.17 3.88544 22.2823 3.98004 22.3769C4.07464 22.4715 4.18694 22.5466 4.31054 22.5978C4.43414 22.649 4.56662 22.6753 4.7004 22.6753H9.29415C9.42794 22.6753 9.56041 22.649 9.68401 22.5978C9.80761 22.5466 9.91992 22.4715 10.0145 22.3769C10.1091 22.2823 10.1842 22.17 10.2354 22.0464C10.2866 21.9228 10.3129 21.7904 10.3129 21.6566V16.5441C10.3129 16.3783 10.3788 16.2193 10.496 16.1021C10.6132 15.9849 10.7721 15.9191 10.9379 15.9191H15.0879C15.2537 15.9191 15.4126 15.9849 15.5298 16.1021C15.6471 16.2193 15.7129 16.3783 15.7129 16.5441V21.6566C15.7129 21.7904 15.7393 21.9228 15.7904 22.0464C15.8416 22.17 15.9167 22.2823 16.0113 22.3769C16.1059 22.4715 16.2182 22.5466 16.3418 22.5978C16.4654 22.649 16.5979 22.6753 16.7317 22.6753H21.3254C21.4592 22.6753 21.5917 22.649 21.7153 22.5978C21.8389 22.5466 21.9512 22.4715 22.0458 22.3769C22.1404 22.2823 22.2154 22.17 22.2666 22.0464C22.3178 21.9228 22.3442 21.7904 22.3442 21.6566V13.3503H23.6254C23.9396 13.3532 24.2471 13.259 24.5058 13.0805C24.7644 12.9021 24.9616 12.648 25.0704 12.3532C25.1791 12.0584 25.1942 11.7371 25.1134 11.4334C25.0326 11.1297 24.86 10.8584 24.6192 10.6566H24.6442Z" stroke="#D9D9D9" stroke-width="1.5" stroke-linecap="round" stroke-linejoin="round"/>
</svg>
