<?xml version="1.0" standalone="no"?>
<!DOCTYPE svg PUBLIC "-//W3C//DTD SVG 20010904//EN"
 "http://www.w3.org/TR/2001/REC-SVG-20010904/DTD/svg10.dtd">
<svg version="1.0" xmlns="http://www.w3.org/2000/svg"
 width="512.000000pt" height="512.000000pt" viewBox="0 0 512.000000 512.000000"
 preserveAspectRatio="xMidYMid meet">

<g transform="translate(0.000000,512.000000) scale(0.100000,-0.100000)"
fill="#000000" stroke="none">
<path d="M1645 4843 c-568 -54 -914 -226 -1132 -560 -119 -182 -183 -374 -230
-688 -14 -93 -17 -238 -20 -925 -5 -860 0 -1029 38 -1252 106 -622 444 -979
1039 -1097 234 -46 239 -46 1220 -46 1023 0 1027 0 1280 61 570 139 880 500
975 1134 27 180 35 423 35 1090 0 952 -17 1152 -120 1445 -166 472 -497 721
-1085 818 -125 20 -163 21 -1045 23 -503 0 -933 -1 -955 -3z m1385 -2283 l0
-1970 -668 0 c-523 0 -694 3 -793 15 -206 24 -336 59 -473 127 -310 155 -464
436 -506 918 -13 150 -13 1670 0 1820 53 613 293 915 813 1020 173 35 232 37
940 39 l687 1 0 -1970z m515 1955 c569 -67 853 -319 945 -840 34 -190 40 -359
40 -1115 0 -729 -6 -921 -36 -1095 -80 -477 -318 -735 -766 -831 -81 -17 -283
-43 -340 -44 l-38 0 0 1970 0 1970 33 0 c17 0 90 -7 162 -15z"/>
<path d="M1635 3250 c-61 -25 -100 -99 -90 -169 6 -44 18 -57 243 -283 l236
-238 -236 -237 c-228 -229 -237 -240 -243 -285 -9 -59 19 -122 68 -155 51 -35
132 -32 183 6 66 49 582 574 593 604 21 55 14 120 -18 163 -49 66 -574 582
-604 593 -33 13 -103 13 -132 1z"/>
</g>
</svg>
