<?xml version="1.0" standalone="no"?>
<!DOCTYPE svg PUBLIC "-//W3C//DTD SVG 20010904//EN"
 "http://www.w3.org/TR/2001/REC-SVG-20010904/DTD/svg10.dtd">
<svg version="1.0" xmlns="http://www.w3.org/2000/svg"
 width="512.000000pt" height="512.000000pt" viewBox="0 0 512.000000 512.000000"
 preserveAspectRatio="xMidYMid meet">

<g transform="translate(0.000000,512.000000) scale(0.100000,-0.100000)"
fill="#000000" stroke="none">
<path d="M1560 4834 c-544 -70 -869 -254 -1078 -609 -85 -145 -151 -351 -189
-595 -16 -105 -18 -199 -18 -1065 0 -996 0 -1005 46 -1225 116 -563 437 -889
1000 -1014 251 -55 303 -57 1300 -53 812 3 926 5 1019 21 732 121 1073 465
1187 1196 16 105 18 201 18 1070 0 869 -2 965 -18 1070 -65 416 -207 707 -437
895 -189 155 -415 246 -750 301 -94 16 -203 18 -1040 20 -740 2 -957 -1 -1040
-12z m1941 -314 c663 -65 959 -363 1019 -1030 8 -87 10 -398 7 -1015 -4 -950
-4 -947 -56 -1147 -117 -451 -413 -674 -970 -728 -59 -6 -429 -10 -867 -10
l-764 0 0 1970 0 1970 764 0 c438 0 808 -4 867 -10z m-1951 -1960 c0 -1696 -2
-1950 -14 -1950 -37 0 -230 43 -297 65 -364 124 -555 376 -626 827 -16 103
-18 199 -18 1058 0 859 2 955 18 1058 82 515 319 773 802 872 50 10 100 19
113 19 l22 1 0 -1950z"/>
<path d="M3124 3244 c-17 -8 -161 -146 -321 -307 -252 -252 -293 -298 -302
-334 -24 -91 -20 -97 307 -425 316 -317 342 -338 415 -324 119 22 173 148 107
247 -16 24 -123 137 -237 252 l-208 207 226 228 c194 194 229 233 238 270 21
77 -11 152 -80 187 -36 19 -106 19 -145 -1z"/>
</g>
</svg>
